<mxfile host="app.diagrams.net" modified="2023-05-05T02:03:53.787Z" agent="Mozilla/5.0 (Windows NT 10.0; Win64; x64) AppleWebKit/537.36 (KHTML, like Gecko) Chrome/112.0.0.0 Safari/537.36" version="21.2.9" etag="OIO9rkM3DeE4w_Zp3__9" type="github">
  <diagram name="PÃ¡gina-1" id="W66hXoFb83YADRkhz1du">
    <mxGraphModel>
      <root>
        <mxCell id="0" />
        <mxCell id="1" parent="0" />
      </root>
    </mxGraphModel>
  </diagram>
</mxfile>
